<svg width="134" height="37" viewBox="0 0 134 37" fill="none" xmlns="http://www.w3.org/2000/svg">
<path d="M23.3087 18.6156L19.2363 22.7742L1.00708 4.15847L5.0788 -6.22208e-05L23.3087 18.6156Z" fill="#5EB7E7"/>
<path d="M16.3078 25.733L12.2354 29.8909L0 17.3965L4.07235 13.238L16.3078 25.733Z" fill="#5EB7E7"/>
<path d="M9.14936 32.8415L5.07765 37L0.0939941 31.9115L4.16634 27.753L9.14936 32.8415Z" fill="#5EB7E7"/>
<path d="M39.6973 31V16.8672H41.9648V14.0547H39.6973C39.7207 12.3555 40.1309 11.0371 40.9277 10.0996C41.7246 9.15039 42.8672 8.63477 44.3555 8.55273V5.74023C42.0938 5.83398 40.2949 6.63086 38.959 8.13086C37.6113 9.63086 36.9199 11.6055 36.8848 14.0547H34.4062V16.8672H36.8848V31H39.6973ZM46.0551 31H48.85V14.0547H46.0551V31ZM47.4438 10.9434C47.8891 10.9434 48.2641 10.7852 48.5688 10.4688C48.8852 10.1641 49.0434 9.78906 49.0434 9.34375C49.0434 8.91016 48.8852 8.53516 48.5688 8.21875C48.2641 7.91406 47.8891 7.76172 47.4438 7.76172C47.0102 7.76172 46.641 7.91406 46.3363 8.21875C46.0199 8.53516 45.8617 8.91016 45.8617 9.34375C45.8617 9.78906 46.0199 10.1641 46.3363 10.4688C46.641 10.7852 47.0102 10.9434 47.4438 10.9434ZM56.157 22.1055C56.2156 20.418 56.6199 19.123 57.3699 18.2207C58.1199 17.3184 59.1746 16.8672 60.534 16.8672C61.9402 16.8672 63.0184 17.3535 63.7684 18.3262C64.5301 19.3105 64.9109 20.7109 64.9109 22.5273V31H67.7059V22.5273C67.7059 20.6992 67.366 19.1113 66.6863 17.7637C65.9949 16.416 65.0281 15.4258 63.7859 14.793C62.8133 14.3125 61.7293 14.0723 60.534 14.0723C59.327 14.0723 58.243 14.3125 57.282 14.793C56.8719 15.0156 56.4969 15.2969 56.157 15.6367V14.0723H53.3445V31H56.157V22.1055ZM73.4484 22.5273C73.4484 20.6992 73.882 19.2988 74.7492 18.3262C75.6281 17.3535 76.8879 16.8672 78.5285 16.8672C80.1691 16.8672 81.423 17.3535 82.2902 18.3262C83.1691 19.2988 83.6086 20.6934 83.6086 22.5098V22.5449C83.6086 24.3613 83.1691 25.7559 82.2902 26.7285C81.423 27.7012 80.1691 28.1875 78.5285 28.1875C76.8879 28.1875 75.6281 27.7012 74.7492 26.7285C73.882 25.7559 73.4484 24.3555 73.4484 22.5273ZM76.7883 30.8418C77.3391 30.9473 77.9191 31 78.5285 31C79.1262 31 79.7004 30.9473 80.2512 30.8418L80.4445 30.8066C81.7453 30.5137 82.8 29.8867 83.6086 28.9258V31H86.4211V14.0723H83.6086V16.1289C82.7883 15.1562 81.716 14.5293 80.3918 14.248L80.2336 14.2129C79.6828 14.1074 79.1145 14.0547 78.5285 14.0547C77.9426 14.0547 77.3801 14.1016 76.841 14.1953L76.6652 14.248C74.7785 14.623 73.302 15.543 72.2355 17.0078C71.1691 18.4727 70.6359 20.3125 70.6359 22.5273C70.6359 24.7305 71.1633 26.5645 72.218 28.0293C73.2727 29.4941 74.7375 30.4199 76.6125 30.8066L76.7883 30.8418ZM93.0953 22.1055C93.1539 20.418 93.5582 19.123 94.3082 18.2207C95.0582 17.3184 96.1129 16.8672 97.4723 16.8672C98.8785 16.8672 99.9566 17.3535 100.707 18.3262C101.468 19.3105 101.849 20.7109 101.849 22.5273V31H104.644V22.5273C104.644 20.6992 104.304 19.1113 103.625 17.7637C102.933 16.416 101.966 15.4258 100.724 14.793C99.7516 14.3125 98.6676 14.0723 97.4723 14.0723C96.2652 14.0723 95.1813 14.3125 94.2203 14.793C93.8102 15.0156 93.4352 15.2969 93.0953 15.6367V14.0723H90.2828V31H93.0953V22.1055ZM119.773 25.9727C118.941 27.4492 117.506 28.1875 115.467 28.1875C113.826 28.1875 112.566 27.7012 111.688 26.7285C110.82 25.7559 110.387 24.3555 110.387 22.5273C110.387 20.6992 110.82 19.2988 111.688 18.3262C112.566 17.3535 113.826 16.8672 115.467 16.8672C117.494 16.8672 118.924 17.5938 119.756 19.0469L122.305 17.8691C121.66 16.6504 120.746 15.7129 119.562 15.0566C118.367 14.3887 117.002 14.0547 115.467 14.0547C113.064 14.0547 111.148 14.8223 109.719 16.3574C108.289 17.9043 107.574 19.9609 107.574 22.5273C107.574 25.1055 108.289 27.1621 109.719 28.6973C111.148 30.2324 113.064 31 115.467 31C117.014 31 118.385 30.666 119.58 29.998C120.775 29.3301 121.695 28.3809 122.34 27.1504L119.773 25.9727ZM127.08 22.1055C127.151 20.5 127.584 19.252 128.381 18.3613C129.178 17.4707 130.291 16.9844 131.721 16.9023V14.0898C131.276 14.1133 130.848 14.1602 130.438 14.2305L130.245 14.2656C128.944 14.5703 127.889 15.1973 127.08 16.1465V14.0898H124.268V31H127.08V22.1055Z" fill="white"/>
</svg>
